<?xml version="1.0" encoding="UTF-8" standalone="no"?>
<!-- Created with Inkscape (http://www.inkscape.org/) -->

<svg
   xmlns:dc="http://purl.org/dc/elements/1.1/"
   xmlns:cc="http://creativecommons.org/ns#"
   xmlns:rdf="http://www.w3.org/1999/02/22-rdf-syntax-ns#"
   xmlns:svg="http://www.w3.org/2000/svg"
   xmlns="http://www.w3.org/2000/svg"
   xmlns:xlink="http://www.w3.org/1999/xlink"
   xmlns:sodipodi="http://sodipodi.sourceforge.net/DTD/sodipodi-0.dtd"
   xmlns:inkscape="http://www.inkscape.org/namespaces/inkscape"
   width="250"
   height="250"
   id="svg2"
   version="1.1"
   inkscape:version="0.46+devel r21848 custom"
   sodipodi:docname="icon.svg"
   inkscape:output_extension="org.inkscape.output.svg.inkscape"
   inkscape:export-filename="/home/steren/workspace/RemixThem/trunk/res/drawable/icon.png"
   inkscape:export-xdpi="17.280001"
   inkscape:export-ydpi="17.280001">
  <sodipodi:namedview
     id="base"
     pagecolor="#919191"
     bordercolor="#666666"
     borderopacity="1.0"
     inkscape:pageopacity="0"
     inkscape:pageshadow="2"
     inkscape:zoom="1.4142136"
     inkscape:cx="130.82011"
     inkscape:cy="59.973654"
     inkscape:document-units="px"
     inkscape:current-layer="layer5"
     showgrid="false"
     inkscape:window-width="1920"
     inkscape:window-height="1152"
     inkscape:window-x="1280"
     inkscape:window-y="25"
     inkscape:window-maximized="1"
     showguides="false"
     inkscape:guide-bbox="true"
     inkscape:snap-bbox="false"
     inkscape:object-nodes="true"
     inkscape:snap-global="true"
     inkscape:object-paths="true"
     inkscape:snap-intersection-paths="true">
    <sodipodi:guide
       id="guide1814"
       position="197.28279,228.04194"
       orientation="-0.90379127,0.42797352" />
    <inkscape:grid
       type="xygrid"
       id="grid2291"
       empspacing="5"
       visible="true"
       enabled="true"
       snapvisiblegridlinesonly="true" />
    <sodipodi:guide
       orientation="0.83069554,0.55672697"
       position="204.3721,200.46367"
       id="guide2919" />
  </sodipodi:namedview>
  <defs
     id="defs4">
    <inkscape:perspective
       sodipodi:type="inkscape:persp3d"
       inkscape:vp_x="0 : 125 : 1"
       inkscape:vp_y="0 : 1000 : 0"
       inkscape:vp_z="250 : 125 : 1"
       inkscape:persp3d-origin="125 : 83.333333 : 1"
       id="perspective63" />
    <linearGradient
       inkscape:collect="always"
       id="linearGradient2283">
      <stop
         style="stop-color:#53851a;stop-opacity:1"
         offset="0"
         id="stop2285" />
      <stop
         style="stop-color:#86d531;stop-opacity:1"
         offset="1"
         id="stop2287" />
    </linearGradient>
    <linearGradient
       inkscape:collect="always"
       id="linearGradient2275">
      <stop
         style="stop-color:#416914;stop-opacity:1"
         offset="0"
         id="stop2277" />
      <stop
         style="stop-color:#9adb52;stop-opacity:1"
         offset="1"
         id="stop2279" />
    </linearGradient>
    <linearGradient
       inkscape:collect="always"
       xlink:href="#linearGradient2275"
       id="linearGradient2281"
       x1="143.31593"
       y1="145.31641"
       x2="140.47067"
       y2="81.237312"
       gradientUnits="userSpaceOnUse"
       gradientTransform="matrix(1.1244682,0,0,1.1244682,-13.461282,787.55935)" />
    <linearGradient
       inkscape:collect="always"
       xlink:href="#linearGradient2283"
       id="linearGradient2289"
       x1="106.74747"
       y1="160.1944"
       x2="102.4817"
       y2="88.319275"
       gradientUnits="userSpaceOnUse"
       gradientTransform="matrix(1.1244682,0,0,1.1244682,-13.461282,787.55935)" />
    <filter
       inkscape:collect="always"
       id="filter2851"
       x="-0.13917771"
       width="1.2783554"
       y="-0.14916845"
       height="1.2983369">
      <feGaussianBlur
         inkscape:collect="always"
         stdDeviation="2.8840509"
         id="feGaussianBlur2853" />
    </filter>
    <filter
       color-interpolation-filters="sRGB"
       inkscape:collect="always"
       id="filter2851-8"
       x="-0.13917771"
       width="1.2783554"
       y="-0.14916845"
       height="1.2983369">
      <feGaussianBlur
         inkscape:collect="always"
         stdDeviation="2.8840509"
         id="feGaussianBlur2853-5" />
    </filter>
    <filter
       color-interpolation-filters="sRGB"
       inkscape:collect="always"
       id="filter2851-8-1"
       x="-0.13917771"
       width="1.2783554"
       y="-0.14916845"
       height="1.2983369">
      <feGaussianBlur
         inkscape:collect="always"
         stdDeviation="2.8840509"
         id="feGaussianBlur2853-5-3" />
    </filter>
    <filter
       inkscape:collect="always"
       id="filter841"
       x="-0.054945571"
       width="1.1098911"
       y="-0.10440649"
       height="1.208813">
      <feGaussianBlur
         inkscape:collect="always"
         stdDeviation="4.2392528"
         id="feGaussianBlur843" />
    </filter>
  </defs>
  <metadata
     id="metadata7">
    <rdf:RDF>
      <cc:Work
         rdf:about="">
        <dc:format>image/svg+xml</dc:format>
        <dc:type
           rdf:resource="http://purl.org/dc/dcmitype/StillImage" />
        <dc:title></dc:title>
      </cc:Work>
    </rdf:RDF>
  </metadata>
  <g
     inkscape:groupmode="layer"
     id="layer7"
     inkscape:label="shadow"
     sodipodi:insensitive="true">
    <path
       style="opacity:0.4;fill:#000000;stroke:#000000;stroke-width:1px;stroke-linecap:butt;stroke-linejoin:miter;stroke-opacity:1;filter:url(#filter841)"
       d="m 196.95962,213.12129 29.56015,-54.8146 2.71026,-24.91023 -137.103325,-17.56998 -44.000106,68.96105 148.833021,28.33376 z"
       id="path2917"
       sodipodi:nodetypes="cccccc"
       transform="matrix(1.2300334,0,0,1.2730839,-37.123834,-35.372846)" />
  </g>
  <g
     inkscape:groupmode="layer"
     id="layer5"
     inkscape:label="silhouette">
    <path
       style="fill:#86d531;stroke:none;stroke-width:1px;stroke-linecap:butt;stroke-linejoin:miter;stroke-opacity:1;fill-opacity:1"
       d="M 1.7478728,35.712322 32.521215,0.55923487 214.26066,27.691046 220.8926,182.27915 205.20589,236.1435 22.07349,199.87718 1.7478728,35.712322 z"
       id="path846"
       sodipodi:nodetypes="ccccccc" />
  </g>
  <g
     inkscape:label="icon"
     id="layer2"
     inkscape:groupmode="layer"
     style="display:inline"
     sodipodi:insensitive="true">
    <g
       id="g2890"
       transform="matrix(1.877466,0,0,1.9431762,-56.395813,-1665.6096)"
       style="fill:#6db024;fill-opacity:1;stroke:none;display:inline">
      <path
         sodipodi:nodetypes="ccccc"
         id="path2892"
         d="m 30.969235,875.53662 103.809475,16.61809 4.55894,86.52808 -97.171869,-18.79153 -11.196546,-84.35464 z"
         style="fill:url(#linearGradient2289);fill-opacity:1;stroke:none" />
      <path
         sodipodi:nodetypes="ccccc"
         id="path2894"
         d="m 147.69291,950.96304 -3.53239,-79.55434 -9.38181,20.74601 4.55894,86.52808 8.35526,-27.71975 z"
         style="fill:url(#linearGradient2281);fill-opacity:1;stroke:none" />
      <path
         sodipodi:nodetypes="ccccc"
         id="path2896"
         d="M 47.360127,857.44609 30.969235,875.53662 134.77871,892.15471 144.16052,871.4087 47.360127,857.44609 z"
         style="fill:#a5e560;fill-opacity:1;stroke:none" />
    </g>
  </g>
  <g
     inkscape:groupmode="layer"
     id="layer6"
     inkscape:label="yeux ombre"
     style="display:inline"
     sodipodi:insensitive="true">
    <g
       id="g2911"
       style="opacity:0.75"
       transform="matrix(1.2300334,0,0,1.2730839,-37.123834,-35.372846)">
      <path
         sodipodi:nodetypes="ccccc"
         id="path2812"
         d="m 114.21084,88.960439 48.03591,7.68815 1.69707,38.713901 -46.46998,-6.16746 -3.263,-40.234591 z"
         style="fill:#000000;stroke:#000000;stroke-width:1px;stroke-linecap:butt;stroke-linejoin:miter;stroke-opacity:1;display:inline;filter:url(#filter2851)" />
      <path
         sodipodi:nodetypes="ccccc"
         id="path2812-1"
         d="m 66.873663,87.581036 29.345496,4.692817 2.331935,24.239247 -29.99847,-3.45203 -1.678961,-25.480034 z"
         style="fill:#000000;stroke:#000000;stroke-width:1px;stroke-linecap:butt;stroke-linejoin:miter;stroke-opacity:1;display:inline;filter:url(#filter2851-8)" />
      <path
         sodipodi:nodetypes="ccccccccc"
         id="path2812-1-7"
         d="m 153.26064,164.05575 0.0851,-8.80677 10.68741,1.6638 0.33192,20.71708 -90.753285,-14.84527 -1.062075,-20.23214 10.802296,1.69751 0.776822,9.09045 69.131812,10.71534 z"
         style="fill:#000000;stroke:#000000;stroke-width:1px;stroke-linecap:butt;stroke-linejoin:miter;stroke-opacity:1;display:inline;filter:url(#filter2851-8-1)" />
    </g>
  </g>
  <g
     inkscape:groupmode="layer"
     id="layer4"
     inkscape:label="yeux"
     style="display:inline"
     sodipodi:insensitive="true">
    <g
       id="g2267"
       style="fill:#bd0051;fill-opacity:1;stroke:none"
       transform="matrix(1.2300334,0,0,1.2730839,-37.123834,-35.372846)">
      <path
         id="path1955"
         d="m 110.15584,95.573082 4.055,-6.612643 48.03591,7.68815 -4.055,6.612641 -48.03591,-7.688148"
         style="fill:#bd0051;fill-opacity:1;stroke:none" />
      <path
         id="path1957"
         d="m 158.19175,103.26123 4.055,-6.612641 1.69707,38.713901 -4.055,6.61264 -1.69707,-38.7139"
         style="fill:#92003e;fill-opacity:1;stroke:none" />
    </g>
    <path
       sodipodi:nodetypes="ccccc"
       id="path3681-4"
       d="m 102.50851,135.54162 -4.136991,-49.241922 59.085751,9.787662 2.08747,49.28603 -57.03623,-9.83177 z"
       style="fill:#41001c;fill-opacity:1;stroke:none" />
    <g
       id="g2263"
       style="fill:#bd0051;fill-opacity:1;stroke:none"
       transform="matrix(1.2300334,0,0,1.2730839,-37.123834,-35.372846)">
      <path
         d="m 66.873663,87.581036 -4.054992,6.612643 29.345496,4.692811 4.054992,-6.612637 -29.345496,-4.692817"
         id="path2068"
         style="fill:#bd0051;fill-opacity:1;stroke:none" />
      <path
         d="m 96.219159,92.273853 -4.054992,6.612637 2.331935,24.23925 4.054992,-6.61264 -2.331935,-24.239247"
         id="path2070"
         style="fill:#92003e;fill-opacity:1;stroke:none" />
    </g>
    <g
       id="g2256"
       style="fill:#bd0051;fill-opacity:1;stroke:none"
       transform="matrix(1.2300334,0,0,1.2730839,-37.123834,-35.372846)">
      <path
         id="path2162"
         d="m 68.494718,149.16509 4.054992,-6.61264 10.802296,1.69751 -4.054992,6.61264 -10.802296,-1.69751"
         style="fill:#bd0051;fill-opacity:1;stroke:none" />
      <path
         id="path2164"
         d="m 79.297014,150.8626 4.054992,-6.61264 0.776822,9.09045 -4.054992,6.61264 -0.776822,-9.09045"
         style="fill:#92003e;fill-opacity:1;stroke:none" />
      <path
         id="path2166"
         d="m 80.073836,159.95305 4.054992,-6.61264 69.131812,10.71534 -4.055,6.61264 -69.131804,-10.71534"
         style="fill:#bd0051;fill-opacity:1;stroke:none" />
      <path
         id="path2170"
         d="m 149.29074,161.86162 4.055,-6.61264 10.68741,1.6638 -4.055,6.61264 -10.68741,-1.6638"
         style="fill:#bd0051;fill-opacity:1;stroke:none" />
      <path
         id="path2172"
         d="m 159.97815,163.52542 4.055,-6.61264 0.33192,20.71708 -4.055,6.61264 -0.33192,-20.71708"
         style="fill:#92003e;fill-opacity:1;stroke:none" />
    </g>
    <path
       sodipodi:nodetypes="ccccccccc"
       id="path3687-6"
       d="m 49.502009,177.36896 -2.37506,-22.84215 13.287185,2.16107 0.955517,11.57291 85.034419,13.64152 0.10453,-11.21175 13.14588,2.11816 0.40828,26.37458 -110.560885,-21.81434 z"
       style="fill:#41001c;fill-opacity:1;stroke:none" />
    <path
       sodipodi:nodetypes="ccccc"
       id="path3679-5"
       d="m 42.962206,115.28043 c 0,0 -2.816982,-30.736828 -2.816982,-30.736828 0,0 36.095937,5.974343 36.095937,5.974343 0,0 2.868358,30.858605 2.868358,30.858605 l -36.147313,-6.09612 z"
       style="fill:#41001c;fill-opacity:1;stroke:none" />
  </g>
  <g
     style="opacity:0.2;display:none"
     inkscape:label="aide"
     id="layer3"
     inkscape:groupmode="layer"
     sodipodi:insensitive="true">
    <path
       sodipodi:nodetypes="cccccccccccccccccccccc"
       id="path3674"
       d="M 1.7478673,35.712317 21.516263,199.39448 M 40.789595,42.293124 57.043606,205.97532 M 79.831319,48.873932 m 39.041731,6.580807 m 39.04173,6.580806 10.54315,167.774235 M 196.9565,68.616351 205.20589,236.14347 M 1.7478673,35.712317 196.9565,68.616351 M 5.7015476,68.448755 200.91017,101.35279 M 9.6552259,101.18519 204.86385,134.08923 M 13.608904,133.92163 208.81754,166.82565 M 17.562582,166.65807 212.7712,199.56212 M 21.516263,199.39448 205.20589,236.14347"
       style="fill:none;stroke:#000000;stroke-width:1.25137353px;stroke-linecap:butt;stroke-linejoin:miter;stroke-opacity:1" />
  </g>
  <g
     style="opacity:0.2;display:none"
     transform="translate(0,-802.36218)"
     id="layer1"
     inkscape:groupmode="layer"
     inkscape:label="cube"
     sodipodi:insensitive="true">
    <g
       transform="matrix(2.1111508,0,0,2.1850399,-81.66891,-1086.0741)"
       id="g3792">
      <path
         style="fill:none;stroke:#000000;stroke-width:0.58263642px;stroke-linecap:butt;stroke-linejoin:miter;stroke-opacity:1"
         d="M 73.571429,109.64286 39.464286,172.67857"
         id="path3783"
         transform="translate(0,802.36218)" />
      <path
         style="fill:none;stroke:#000000;stroke-width:0.58263642px;stroke-linecap:butt;stroke-linejoin:miter;stroke-opacity:1"
         d="m 68.214286,47.142857 5.357143,62.500003 76.071431,13.75"
         id="path3785"
         transform="translate(0,802.36218)"
         sodipodi:nodetypes="ccc" />
    </g>
    <g
       transform="matrix(2.1111508,0,0,2.1850399,-81.66891,-1086.0741)"
       id="g3787">
      <path
         transform="translate(0,802.36218)"
         style="fill:none;stroke:#000000;stroke-width:0.58263642px;stroke-linecap:butt;stroke-linejoin:miter;stroke-opacity:1"
         d="M 28.035714,90.892857 125.35714,107.14286 130,190.71429 39.464286,172.67857 28.035714,90.892857 z"
         id="path3773" />
      <path
         style="fill:none;stroke:#000000;stroke-width:0.58263642px;stroke-linecap:butt;stroke-linejoin:miter;stroke-opacity:1"
         d="M 149.64286,123.39286 147.67857,57.5 125.35714,107.14286 130,190.71429 149.64286,123.39286 z"
         id="path3779"
         transform="translate(0,802.36218)" />
      <path
         style="fill:none;stroke:#000000;stroke-width:0.58263642px;stroke-linecap:butt;stroke-linejoin:miter;stroke-opacity:1"
         d="m 68.214286,47.142857 -40.178572,43.75 L 125.35714,107.14286 147.67857,57.5 68.214286,47.142857 z"
         id="path3781"
         transform="translate(0,802.36218)" />
    </g>
  </g>
</svg>
