<?xml version="1.0" encoding="UTF-8" standalone="no"?>
<!-- Created with Inkscape (http://www.inkscape.org/) -->

<svg
   xmlns:dc="http://purl.org/dc/elements/1.1/"
   xmlns:cc="http://creativecommons.org/ns#"
   xmlns:rdf="http://www.w3.org/1999/02/22-rdf-syntax-ns#"
   xmlns:svg="http://www.w3.org/2000/svg"
   xmlns="http://www.w3.org/2000/svg"
   xmlns:xlink="http://www.w3.org/1999/xlink"
   xmlns:sodipodi="http://sodipodi.sourceforge.net/DTD/sodipodi-0.dtd"
   xmlns:inkscape="http://www.inkscape.org/namespaces/inkscape"
   width="210mm"
   height="297mm"
   id="svg2"
   version="1.1"
   inkscape:version="0.46+devel r21939"
   sodipodi:docname="menu_icons.svg"
   inkscape:output_extension="org.inkscape.output.svg.inkscape">
  <defs
     id="defs4">
    <marker
       inkscape:stockid="Arrow1Send"
       orient="auto"
       refY="0.0"
       refX="0.0"
       id="Arrow1Send"
       style="overflow:visible;">
      <path
         id="path1125"
         d="M 0.0,0.0 L 5.0,-5.0 L -12.5,0.0 L 5.0,5.0 L 0.0,0.0 z "
         style="fill-rule:evenodd;stroke:#000000;stroke-width:1.0pt;marker-start:none;"
         transform="scale(0.2) rotate(180) translate(6,0)" />
    </marker>
    <marker
       inkscape:stockid="Arrow1Mend"
       orient="auto"
       refY="0.0"
       refX="0.0"
       id="Arrow1Mend"
       style="overflow:visible;">
      <path
         id="path1119"
         d="M 0.0,0.0 L 5.0,-5.0 L -12.5,0.0 L 5.0,5.0 L 0.0,0.0 z "
         style="fill-rule:evenodd;stroke:#000000;stroke-width:1.0pt;marker-start:none;"
         transform="scale(0.4) rotate(180) translate(10,0)" />
    </marker>
    <inkscape:path-effect
       effect="spiro"
       id="path-effect1021"
       is_visible="true" />
    <inkscape:path-effect
       effect="spiro"
       id="path-effect956"
       is_visible="true" />
    <inkscape:path-effect
       effect="spiro"
       id="path-effect927"
       is_visible="true" />
    <linearGradient
       id="linearGradient900"
       inkscape:collect="always">
      <stop
         id="stop902"
         offset="0"
         style="stop-color:#787878;stop-opacity:1" />
      <stop
         id="stop904"
         offset="1"
         style="stop-color:#a3a3a3;stop-opacity:1" />
    </linearGradient>
    <inkscape:perspective
       sodipodi:type="inkscape:persp3d"
       inkscape:vp_x="0 : 526.18109 : 1"
       inkscape:vp_y="0 : 1000 : 0"
       inkscape:vp_z="744.09448 : 526.18109 : 1"
       inkscape:persp3d-origin="372.04724 : 350.78739 : 1"
       id="perspective10" />
    <linearGradient
       inkscape:collect="always"
       xlink:href="#linearGradient900"
       id="linearGradient261"
       gradientUnits="userSpaceOnUse"
       gradientTransform="translate(36.147139,-18.182746)"
       x1="342.85715"
       y1="406.64789"
       x2="342.85715"
       y2="190.70837" />
    <filter
       id="filter263"
       inkscape:label="android"
       inkscape:menu="Shadows and Glows"
       inkscape:menu-tooltip="Adds a colorizable drop shadow inside"
       height="1.2"
       y="-0.1"
       width="1.2"
       x="-0.1">
      <feGaussianBlur
         id="feGaussianBlur265"
         stdDeviation="8"
         result="result8" />
      <feOffset
         id="feOffset267"
         dx="0"
         dy="11"
         result="result11" />
      <feComposite
         id="feComposite269"
         in2="result11"
         result="result6"
         in="SourceGraphic"
         operator="in" />
      <feFlood
         id="feFlood271"
         result="result10"
         in="result6"
         flood-opacity="1"
         flood-color="rgb(41,41,41)" />
      <feBlend
         id="feBlend273"
         in2="result10"
         blend="normal"
         mode="normal"
         in="result6"
         result="result12" />
      <feComposite
         id="feComposite275"
         in2="SourceGraphic"
         result="fbSourceGraphic"
         operator="in" />
      <feColorMatrix
         result="fbSourceGraphicAlpha"
         in="fbSourceGraphic"
         values="0 0 0 -1 0 0 0 0 -1 0 0 0 0 -1 0 0 0 0 1 0"
         id="feColorMatrix114" />
      <feGaussianBlur
         id="feGaussianBlur116"
         stdDeviation="5"
         result="result8"
         in="fbSourceGraphic" />
      <feOffset
         id="feOffset118"
         dx="0"
         dy="-10"
         result="result11" />
      <feComposite
         id="feComposite120"
         in2="result11"
         result="result6"
         in="fbSourceGraphic"
         operator="in" />
      <feFlood
         id="feFlood122"
         result="result10"
         in="result6"
         flood-opacity="1"
         flood-color="rgb(215,215,215)" />
      <feBlend
         id="feBlend124"
         in2="result10"
         blend="normal"
         mode="normal"
         in="result6"
         result="result13" />
      <feComposite
         id="feComposite126"
         in2="fbSourceGraphic"
         result="result2"
         operator="in" />
    </filter>
    <inkscape:perspective
       id="perspective914"
       inkscape:persp3d-origin="0.5 : 0.33333333 : 1"
       inkscape:vp_z="1 : 0.5 : 1"
       inkscape:vp_y="0 : 1000 : 0"
       inkscape:vp_x="0 : 0.5 : 1"
       sodipodi:type="inkscape:persp3d" />
    <inkscape:perspective
       id="perspective939"
       inkscape:persp3d-origin="0.5 : 0.33333333 : 1"
       inkscape:vp_z="1 : 0.5 : 1"
       inkscape:vp_y="0 : 1000 : 0"
       inkscape:vp_x="0 : 0.5 : 1"
       sodipodi:type="inkscape:persp3d" />
    <linearGradient
       inkscape:collect="always"
       xlink:href="#linearGradient900"
       id="linearGradient976"
       x1="895.44818"
       y1="396.49606"
       x2="899.25604"
       y2="157.92464"
       gradientUnits="userSpaceOnUse"
       gradientTransform="translate(18,0)" />
    <linearGradient
       inkscape:collect="always"
       xlink:href="#linearGradient900"
       id="linearGradient1008"
       gradientUnits="userSpaceOnUse"
       gradientTransform="translate(402.41065,-5.1962788)"
       x1="895.44818"
       y1="396.49606"
       x2="899.25604"
       y2="157.92464" />
    <linearGradient
       inkscape:collect="always"
       xlink:href="#linearGradient900"
       id="linearGradient1030"
       gradientUnits="userSpaceOnUse"
       gradientTransform="translate(782.41065,-5.1962788)"
       x1="895.44818"
       y1="396.49606"
       x2="899.25604"
       y2="157.92464" />
    <inkscape:perspective
       id="perspective1041"
       inkscape:persp3d-origin="0.5 : 0.33333333 : 1"
       inkscape:vp_z="1 : 0.5 : 1"
       inkscape:vp_y="0 : 1000 : 0"
       inkscape:vp_x="0 : 0.5 : 1"
       sodipodi:type="inkscape:persp3d" />
    <linearGradient
       inkscape:collect="always"
       xlink:href="#linearGradient900"
       id="linearGradient1065"
       gradientUnits="userSpaceOnUse"
       gradientTransform="translate(2.4108007,-5.1962788)"
       x1="895.44818"
       y1="396.49606"
       x2="899.25604"
       y2="157.92464" />
    <linearGradient
       inkscape:collect="always"
       xlink:href="#linearGradient900"
       id="linearGradient1865"
       gradientUnits="userSpaceOnUse"
       gradientTransform="translate(1162.4149,-5.2072237)"
       x1="895.44818"
       y1="396.49606"
       x2="899.25604"
       y2="157.92464" />
    <linearGradient
       inkscape:collect="always"
       xlink:href="#linearGradient900"
       id="linearGradient80"
       gradientUnits="userSpaceOnUse"
       gradientTransform="translate(2135.2442,7.0710679)"
       x1="342.85715"
       y1="406.64789"
       x2="342.85715"
       y2="190.70837" />
    <linearGradient
       inkscape:collect="always"
       xlink:href="#linearGradient900"
       id="linearGradient86"
       gradientUnits="userSpaceOnUse"
       gradientTransform="translate(2148.1605,-26.930011)"
       x1="895.44818"
       y1="396.49606"
       x2="899.25604"
       y2="157.92464" />
    <linearGradient
       inkscape:collect="always"
       xlink:href="#linearGradient900"
       id="linearGradient90"
       gradientUnits="userSpaceOnUse"
       gradientTransform="translate(1897.7855,-113.86751)"
       x1="895.44818"
       y1="396.49606"
       x2="899.25604"
       y2="157.92464" />
    <linearGradient
       inkscape:collect="always"
       xlink:href="#linearGradient900"
       id="linearGradient94"
       gradientUnits="userSpaceOnUse"
       gradientTransform="translate(1897.7855,-113.86751)"
       x1="895.44818"
       y1="396.49606"
       x2="899.25604"
       y2="157.92464" />
    <linearGradient
       inkscape:collect="always"
       xlink:href="#linearGradient900"
       id="linearGradient96"
       gradientUnits="userSpaceOnUse"
       gradientTransform="matrix(0.79989746,0,0,0.79989746,2248.2533,56.157006)"
       x1="342.85715"
       y1="406.64789"
       x2="342.85715"
       y2="190.70837" />
    <linearGradient
       inkscape:collect="always"
       xlink:href="#linearGradient900"
       id="linearGradient99"
       gradientUnits="userSpaceOnUse"
       gradientTransform="matrix(0.79989746,0,0,0.79989746,2168.2533,79.014149)"
       x1="342.85715"
       y1="406.64789"
       x2="342.85715"
       y2="190.70837" />
  </defs>
  <sodipodi:namedview
     id="base"
     pagecolor="#ffffff"
     bordercolor="#666666"
     borderopacity="1.0"
     inkscape:pageopacity="0.0"
     inkscape:pageshadow="2"
     inkscape:zoom="0.7"
     inkscape:cx="2393.8907"
     inkscape:cy="743.13802"
     inkscape:document-units="px"
     inkscape:current-layer="layer3"
     showgrid="false"
     inkscape:window-width="1920"
     inkscape:window-height="1152"
     inkscape:window-x="1280"
     inkscape:window-y="25"
     inkscape:window-maximized="1"
     showborder="false"
     showguides="false"
     inkscape:guide-bbox="true"
     inkscape:snap-global="false">
    <sodipodi:guide
       orientation="1,0"
       position="899.28572,910"
       id="guide958" />
    <sodipodi:guide
       orientation="1,0"
       position="859.28572,910.71429"
       id="guide960" />
    <sodipodi:guide
       orientation="1,0"
       position="940,908.57143"
       id="guide962" />
    <sodipodi:guide
       orientation="1,0"
       position="800,830.71429"
       id="guide964" />
    <sodipodi:guide
       orientation="1,0"
       position="1000,835.71429"
       id="guide966" />
    <inkscape:grid
       type="xygrid"
       id="grid968"
       empspacing="5"
       visible="true"
       enabled="true"
       snapvisiblegridlinesonly="true"
       spacingx="5px"
       spacingy="5px" />
  </sodipodi:namedview>
  <metadata
     id="metadata7">
    <rdf:RDF>
      <cc:Work
         rdf:about="">
        <dc:format>image/svg+xml</dc:format>
        <dc:type
           rdf:resource="http://purl.org/dc/dcmitype/StillImage" />
        <dc:title></dc:title>
      </cc:Work>
    </rdf:RDF>
  </metadata>
  <g
     inkscape:label="Calque 1"
     inkscape:groupmode="layer"
     id="layer1"
     style="display:inline">
    <path
       id="path259"
       d="m 390.20964,131.28601 -40.15625,72 -63.1875,-52.9375 15.53125,80.9375 -82.40625,0.0625 63.9375,52.03125 -63.125,53.03125 82.4375,-1.25 -14.28125,81.21875 62.34375,-53.9375 41.28125,71.34375 13.09375,-81.375 77.46875,28.15625 -42.28125,-70.78125 77.4375,-28.25 -77.875,-27.03125 41.1875,-71.40625 -77.03125,29.34375 -14.375,-81.15625 z m -54.0625,117.1875 57.84375,0 c 10.28857,0 18.59375,8.27393 18.59375,18.5625 l 0,36.4375 c 0,10.28857 -8.30518,18.5625 -18.59375,18.5625 l -57.84375,0 c -10.28857,0 -18.5625,-8.27393 -18.5625,-18.5625 l 0,-36.4375 c 0,-10.28857 8.27393,-18.5625 18.5625,-18.5625 z"
       style="fill:url(#linearGradient261);fill-opacity:1;stroke:none;filter:url(#filter263)" />
    <path
       style="fill:url(#linearGradient1065);fill-opacity:1;fill-rule:nonzero;stroke:none;filter:url(#filter263)"
       d="m 901.0983,145.27247 c -52.37259,0.38761 -65.72965,32.25731 -66.25,97.9375 -3.05453,-2.28819 -6.01527,-3.15883 -7.53125,0.21875 -2.10162,4.68258 0.10761,15.63675 2.6875,24.65625 1.9041,6.65691 0.88507,12.2458 8.65625,13.46875 4.81994,20.81041 13.8944,38.51145 25.625,50.59375 -3.09904,16.44733 -11.78589,32.77553 -36.0625,32.15625 -12.77926,-0.32599 -54.35772,-2.07027 -66.09375,38.5625 104.22281,0.71429 184.97835,1.86161 273.81245,-0.28125 -10.492,-38.57142 -45.7317,-37.42788 -70.68745,-38.28125 -17.68999,-0.60491 -24.86401,-16.71379 -27.71875,-31.78125 11.69661,-11.87317 20.78261,-29.30416 25.71875,-49.84375 6.66089,-0.59728 6.52519,-8.33832 9.15625,-16.0625 2.7979,-8.21428 2.4363,-20.69643 0.6875,-24.625 -1.08504,-2.43763 -2.71083,-1.97233 -5.625,0 0.93387,-66.77259 -17.23491,-97.08244 -66.375,-96.71875 z m -31.84375,91.5625 c 5.24559,0.0296 16.90813,3.12527 16.78125,7 -0.20921,2.03825 -4.28695,5.30996 -16.15625,5.5625 -11.86929,0.25253 -16.29696,-6.45282 -16.15625,-8.09375 0.14608,-1.70359 6.7886,-4.51807 15.53125,-4.46875 z m 61.28125,0 c 8.74265,-0.0493 15.2589,2.32322 15.53125,4.46875 0.30393,2.39428 -4.28696,8.34628 -16.15625,8.09375 -11.8693,-0.25254 -16.12562,-2.89925 -16.15625,-5.5625 0.58741,-3.60687 11.53566,-6.97041 16.78125,-7 z m -55.6875,67.875 47.5,0 c 0,0 -1.78679,13.38008 -23,12.875 -21.2132,-0.50507 -24.75254,-12.11739 -24.5,-12.875 z"
       id="path925"
       sodipodi:nodetypes="ccssccsccsccssccccszcczsccccsc" />
    <path
       style="fill:url(#linearGradient1008);fill-opacity:1;fill-rule:nonzero;stroke:none;filter:url(#filter263)"
       d="m 1301.0982,145.27247 c -52.3726,0.38761 -65.7297,32.25731 -66.25,97.9375 -3.0545,-2.28819 -6.0151,-3.15883 -7.5313,0.21875 -2.1014,4.68258 0.1076,15.63675 2.6876,24.65625 1.9038,6.65691 0.885,12.2458 8.6562,13.46875 4.8199,20.81041 13.8944,38.51145 25.625,50.59375 -3.099,16.44733 -11.7858,32.77553 -36.0625,32.15625 -12.7792,-0.32599 -54.3579,-2.07027 -66.0937,38.5625 104.2228,0.71429 184.9782,1.86161 273.8124,-0.28125 -10.492,-38.57142 -45.7318,-37.42788 -70.6874,-38.28125 -17.6903,-0.60491 -24.8641,-16.71379 -27.7188,-31.78125 11.6966,-11.87317 20.7824,-29.30416 25.7188,-49.84375 6.6607,-0.59728 6.5251,-8.33832 9.1562,-16.0625 2.7979,-8.21428 2.4363,-20.69643 0.6875,-24.625 -1.085,-2.43763 -2.7108,-1.97233 -5.625,0 0.9339,-66.77259 -17.2349,-97.08244 -66.375,-96.71875 z m 0.6563,56.5 c 12.5047,1.6e-4 22.5185,3.28314 30.0624,9.875 7.6113,6.59217 11.437,15.28839 11.4376,26.09375 -6e-4,5.16497 -1.2408,10.09217 -3.6876,14.78125 -2.4462,4.62128 -6.7278,9.87439 -12.8437,15.71875 l -8.9687,8.75 c -3.1942,3.19413 -5.4535,5.72767 -6.8126,7.5625 -1.2912,1.76703 -2.2061,3.48858 -2.75,5.1875 -0.4071,1.4272 -0.7334,3.14881 -0.9374,5.1875 -0.2036,2.03885 -0.3126,4.8412 -0.3126,8.375 l 0,12.53125 -19.4374,0 0,-15.6875 c -6e-4,-6.86378 0.9408,-12.52014 2.8437,-16.9375 1.9029,-4.41726 5.9148,-9.53049 12.0313,-15.375 l 9.1562,-9.09375 c 3.8737,-3.60175 6.6761,-6.99332 8.375,-10.1875 1.7667,-3.19397 2.6562,-6.45116 2.6562,-9.78125 0,-6.04822 -2.2645,-10.94963 -6.75,-14.6875 -4.417,-3.73761 -10.2851,-5.59359 -17.625,-5.59375 -5.3685,1.6e-4 -11.1028,1.18404 -17.2187,3.5625 -6.0486,2.37867 -12.3763,5.85313 -18.9687,10.40625 l 0,-19.1875 c 6.3883,-3.87352 12.8509,-6.75326 19.375,-8.65625 6.5919,-1.90268 13.3754,-2.84359 20.375,-2.84375 z m -14.875,129.03125 20.6874,0 0,25.90625 -20.6874,0 0,-25.90625 z"
       id="path978" />
    <g
       style="font-size:40px;font-style:normal;font-weight:normal;fill:#000000;fill-opacity:1;stroke:none;font-family:Bitstream Vera Sans"
       id="flowRoot982"
       transform="matrix(5.2192477,0,0,5.2192477,-6339.9771,-809.95099)" />
    <path
       style="fill:url(#linearGradient1030);fill-opacity:1;fill-rule:nonzero;stroke:none;filter:url(#filter263)"
       d="m 1681.0982,145.27247 c -52.3726,0.38761 -65.7297,32.25731 -66.25,97.9375 -3.0545,-2.28819 -6.015,-3.15883 -7.5313,0.21875 -2.1014,4.68258 0.1075,15.63675 2.6876,24.65625 1.9038,6.65691 0.885,12.2458 8.6562,13.46875 4.8199,20.81041 13.8944,38.51145 25.625,50.59375 -3.099,16.44733 -11.7858,32.77553 -36.0625,32.15625 -12.7792,-0.32599 -54.358,-2.07027 -66.0937,38.5625 104.2228,0.71429 184.9782,1.86161 273.8124,-0.28125 -10.4919,-38.57142 -45.7318,-37.42788 -70.6874,-38.28125 -17.6904,-0.60491 -24.8641,-16.71379 -27.7188,-31.78125 11.6966,-11.87317 20.7823,-29.30416 25.7188,-49.84375 6.6605,-0.59728 6.5251,-8.33832 9.1562,-16.0625 2.7979,-8.21428 2.4363,-20.69643 0.6875,-24.625 -1.085,-2.43763 -2.7108,-1.97233 -5.625,0 0.9339,-66.77259 -17.2349,-97.08244 -66.375,-96.71875 z m 26.6563,60.14181 c 14.2015,0 25.7187,16.06283 25.7187,30.26444 0,14.20161 -11.5172,25.6875 -25.7187,25.6875 -14.2018,0 -25.6876,-11.48589 -25.6876,-25.6875 0,-14.20161 11.4858,-30.26444 25.6876,-30.26444 z m -55.5415,11.29087 c 9.7385,0 20.0638,9.77528 20.0638,19.51375 0,9.73847 -7.9025,18.18304 -17.625,17.625 -18.6671,-1.07143 -22.2679,-11.45796 -22.2679,-21.19643 0,-9.73847 10.0906,-15.94232 19.8291,-15.94232 z m 64.5727,81.00928 c 0,0 -9.0633,29.00329 -39.7857,27.89732 -21.3749,-0.78778 -31.1219,-20.27354 -32.9691,-30.27354 l 72.7548,2.37622 z"
       id="path1011"
       sodipodi:nodetypes="ccssccsccsccsscccsssccsssccscc" />
    <path
       style="fill:url(#linearGradient1865);fill-opacity:1;fill-rule:nonzero;stroke:none;filter:url(#filter263)"
       d="m 2061.0981,145.27247 c -52.3725,0.38761 -65.7297,32.25731 -66.25,97.9375 -3.0545,-2.28819 -6.0152,-3.15883 -7.5312,0.21875 -2.1016,4.68258 0.1076,15.63675 2.6875,24.65625 1.9041,6.65691 0.885,12.2458 8.6563,13.46875 4.8198,20.81041 13.8943,38.51145 25.625,50.59375 -3.0991,16.44733 -11.786,32.77553 -36.0626,32.15625 -12.7792,-0.32599 -54.3576,-2.07027 -66.0937,38.5625 104.2228,0.71429 184.9784,1.86161 273.8125,-0.28125 -10.492,-38.57142 -45.7317,-37.42788 -70.6875,-38.28125 -17.69,-0.60491 -24.8641,-16.71379 -27.7187,-31.78125 11.6965,-11.87317 20.7826,-29.30416 25.7187,-49.84375 6.6609,-0.59728 6.5251,-8.33832 9.1563,-16.0625 2.7979,-8.21428 2.4363,-20.69643 0.6874,-24.625 -1.0851,-2.43763 -2.7109,-1.97233 -5.625,0 0.9339,-66.77259 -17.2348,-97.08244 -66.375,-96.71875 z m 3.1563,53.8125 c 2.3496,0.0366 4.741,0.26615 7.125,0.6875 17.7955,3.14521 31.3484,16.53067 35.6875,33 l 9.0938,-1.71875 3.125,-0.59375 -1.5313,2.8125 -13.1875,24 -0.8125,1.5 -1.375,-1 -23.8437,-17.09375 -2.875,-2.03125 3.4687,-0.65625 10.5,-1.96875 c -2.893,-9.45319 -10.8576,-16.92791 -21.3437,-18.78125 -12.5431,-2.21684 -24.45,4.36601 -29.5,15.375 l -14.2188,-11 c 8.0635,-13.9068 23.2404,-22.78719 39.6875,-22.53125 z m -42.9687,27.875 1.375,0.96875 23.8437,17.09375 2.875,2.0625 -3.4687,0.625 -10.5,1.96875 c 2.8897,9.45894 10.8528,16.92709 21.3437,18.78125 12.5427,2.21689 24.4501,-4.3347 29.5,-15.34375 l 14.2187,10.96875 c -9.2154,15.89345 -27.7409,25.21455 -46.8124,21.84375 -17.7999,-3.146 -31.3519,-16.52517 -35.6876,-33 l -9.0937,1.71875 -3.125,0.59375 1.5313,-2.8125 13.1874,-24 0.8126,-1.46875 z"
       id="path1101" />
    <path
       style="fill:url(#linearGradient99);fill-opacity:1;stroke:none;filter:url(#filter263)"
       d="m 2692.4375,109.48214 c -20.3549,0.29122 -40.3931,7.189 -56.9687,20.03125 l 18.875,35.625 c 19.4482,-18.31987 48.7307,-21.27698 71.7812,-5.40625 19.2703,13.26812 28.7291,35.93082 26.4062,58.15625 l -22.5624,-5.34375 -7.4376,-1.75 3.9688,6.78125 32.8125,56.90625 1.875,3.3125 2.9063,-2.375 46.7187,-37.96875 5.4687,-4.46875 -6.7187,-1.5625 -19.5625,-4.625 c 5.4412,-38.09126 -10.0784,-78.04578 -42.7812,-100.5625 -4.3811,-3.01648 -8.9524,-5.65698 -13.5938,-7.84375 -13.1989,-6.21836 -27.2605,-9.1055 -41.1875,-8.90625 z m -72.4375,65.75 -40,40 20,0 0,40 -40,0 0,-20 -40,40 40,40 0,-20 40,0 0,40 -20,0 40,40 40,-40 -20,0 0,-40 40,0 0,20 40,-40 -40,-40 0,20 -40,0 0,-40 20,0 -40,-40 z m -140.2188,99.53125 -2.8437,2.46875 -45.625,39.3125 -5.3125,4.625 6.7812,1.375 19.6563,4.03125 c -4.3395,38.23243 12.3484,77.71776 45.6875,99.28125 4.4663,2.88878 9.0787,5.3856 13.7812,7.4375 32.918,14.36267 70.5315,8.48827 97.8126,-13.9375 l -19.875,-35.0625 c -18.9115,18.87354 -48.1261,22.69885 -71.625,7.5 -19.6453,-12.70643 -29.743,-35.12304 -28.0626,-57.40625 l 22.6876,4.71875 7.5312,1.53125 -4.1875,-6.6875 -34.4375,-55.9375 -1.9688,-3.25 z"
       id="path78"
       transform="matrix(0.90900381,0,0,0.90900381,76.228108,25.050592)" />
  </g>
  <g
     inkscape:groupmode="layer"
     id="layer3"
     inkscape:label="export"
     style="display:none">
    <rect
       style="fill:none;stroke:#000000;stroke-width:0.80600011;display:inline"
       id="rect1859"
       width="351.72708"
       height="351.72708"
       x="723.17224"
       y="98.681183"
       ry="0"
       inkscape:export-filename="/home/steren/workspace/test/RemixThem/res/drawable/ic_menu_reset.png"
       inkscape:export-xdpi="12.254167"
       inkscape:export-ydpi="12.254167" />
    <rect
       ry="0"
       y="98.681183"
       x="1123.1721"
       height="351.72708"
       width="351.72708"
       id="rect1867"
       style="fill:none;stroke:#000000;stroke-width:0.80600011;display:inline"
       inkscape:export-filename="/home/steren/workspace/test/RemixThem/res/drawable/ic_menu_shuffle.png"
       inkscape:export-xdpi="12.254169"
       inkscape:export-ydpi="12.254169" />
    <rect
       style="fill:none;stroke:#000000;stroke-width:0.80600011;display:inline"
       id="rect1869"
       width="351.72708"
       height="351.72708"
       x="1503.1721"
       y="98.681183"
       ry="0"
       inkscape:export-filename="/home/steren/workspace/test/RemixThem/res/drawable/ic_menu_ugly.png"
       inkscape:export-xdpi="12.254169"
       inkscape:export-ydpi="12.254169" />
    <rect
       ry="0"
       y="98.681183"
       x="1883.1721"
       height="351.72708"
       width="351.72708"
       id="rect1871"
       style="fill:none;stroke:#000000;stroke-width:0.80600011;display:inline"
       inkscape:export-filename="/home/steren/workspace/test/RemixThem/res/drawable/ic_menu_change.png"
       inkscape:export-xdpi="12.254169"
       inkscape:export-ydpi="12.254169" />
    <rect
       inkscape:export-ydpi="12.25"
       inkscape:export-xdpi="12.25"
       inkscape:export-filename="/home/steren/workspace/test/RemixThem/res/drawable/ic_menu_edit.png"
       style="fill:none;stroke:#000000;stroke-width:0.80600011;display:inline"
       id="rect101"
       width="351.72708"
       height="351.72708"
       x="2283.1721"
       y="98.681183"
       ry="0" />
  </g>
  <g
     inkscape:groupmode="layer"
     id="layer2"
     inkscape:label="originals"
     style="display:none">
    <g
       transform="matrix(5.2192477,0,0,5.2192477,-6339.9771,-809.95099)"
       id="g999"
       style="font-size:40px;font-style:normal;font-weight:normal;fill:#000000;fill-opacity:1;stroke:none;font-family:Bitstream Vera Sans">
      <path
         id="path1001"
         d="m 1453.168,219.56528 3.9648,0 0,4.96094 -3.9648,0 0,-4.96094 m 3.8476,-2.87109 -3.7304,0 0,-3.00782 c -10e-5,-1.31509 0.1822,-2.39582 0.5468,-3.24218 0.3646,-0.84634 1.1328,-1.82942 2.3047,-2.94922 l 1.7578,-1.73828 c 0.7422,-0.69009 1.2761,-1.34113 1.6016,-1.95313 0.3385,-0.61196 0.5078,-1.23696 0.5078,-1.875 0,-1.15883 -0.4297,-2.09633 -1.2891,-2.8125 -0.8463,-0.71612 -1.9726,-1.07419 -3.3789,-1.07422 -1.0286,3e-5 -2.1289,0.22789 -3.3007,0.6836 -1.1589,0.45575 -2.3698,1.11981 -3.6329,1.99218 l 0,-3.67187 c 1.224,-0.74216 2.461,-1.29555 3.711,-1.66016 1.263,-0.36455 2.5651,-0.54684 3.9062,-0.54687 2.3959,3e-5 4.3164,0.63154 5.7618,1.89453 1.4583,1.26305 2.1874,2.92971 2.1875,5 -1e-4,0.9896 -0.2344,1.93361 -0.7032,2.83203 -0.4687,0.88543 -1.2891,1.88804 -2.4609,3.00781 l -1.7188,1.67969 c -0.612,0.61199 -1.0482,1.09376 -1.3086,1.44531 -0.2474,0.33856 -0.4231,0.67059 -0.5273,0.9961 -0.078,0.27345 -0.1367,0.60548 -0.1758,0.99609 -0.039,0.39064 -0.059,0.92449 -0.059,1.60156 l 0,2.40235" />
    </g>
    <path
       sodipodi:nodetypes="csssccsssccssscccsccsc"
       d="m 976.098,252.17835 c 7.6943,-5.35715 10.8419,-8.92858 12.5906,-5 1.7488,3.92857 2.0985,16.42857 -0.6994,24.64285 -2.798,8.21429 -2.4481,16.42857 -10.4922,16.07143 -8.0441,-0.35714 -1.399,-34.64286 -1.399,-35.71428 z m 6.8665,0.31633 c 0,56.34708 -29.67342,102.02541 -66.27753,102.02541 -36.60401,0 -66.2775,-45.67833 -66.2775,-102.02541 0,-68.46891 12.82155,-101.62979 66.2775,-102.02542 50.42803,-0.37322 68.25593,31.5362 66.27753,102.02542 z m -122.70137,6.29606 c -14.68912,17.85714 37.23643,28.50601 -2.68821,28.21429 -11.43959,-0.0854 -9.83681,-6.23179 -11.97937,-13.72237 -2.57989,-9.0195 -4.79129,-19.98791 -2.68967,-24.67049 3.84718,-8.57144 17.00755,10.17857 17.35725,10.17857 z m 21.33421,54.28572 69.87416,-1.42858 c 0,0 -4.10566,56.71216 29.3782,57.85715 24.9558,0.85337 60.1998,-0.29586 70.6921,38.27556 -88.8343,2.14286 -169.58513,1.01016 -273.80794,0.29587 11.73603,-40.63277 53.3122,-38.89742 66.09146,-38.57143 37.50843,0.95682 37.77201,-38.57142 37.77202,-56.42857 z"
       style="opacity:0.6;fill:url(#linearGradient976);fill-opacity:1;fill-rule:nonzero;stroke:none;display:inline;filter:url(#filter263)"
       id="path1051" />
    <g
       style="display:inline"
       transform="translate(88.571429,2.8571429)"
       id="g1831">
      <path
         style="font-size:medium;font-style:normal;font-variant:normal;font-weight:normal;font-stretch:normal;text-indent:0;text-align:start;text-decoration:none;line-height:normal;letter-spacing:normal;word-spacing:normal;text-transform:none;direction:ltr;block-progression:tb;writing-mode:lr-tb;text-anchor:start;color:#000000;fill:#000000;fill-opacity:1;fill-rule:evenodd;stroke:none;stroke-width:8.16465378pt;marker:none;visibility:visible;display:inline;overflow:visible;enable-background:accumulate;font-family:Bitstream Vera Sans;-inkscape-font-specification:Bitstream Vera Sans"
         d="m 2518.2188,403.4375 -10.0938,3.8125 -119.2188,44.84375 -11.1874,4.21875 10.7812,5.15625 89.4688,42.84375 5.1874,2.5 1.8438,-5.4375 29.75,-87.71875 3.4688,-10.21875 z"
         id="path1833"
         sodipodi:nodetypes="cccccccccc" />
      <path
         sodipodi:nodetypes="cscccs"
         style="font-size:medium;font-style:normal;font-variant:normal;font-weight:normal;font-stretch:normal;text-indent:0;text-align:start;text-decoration:none;line-height:normal;letter-spacing:normal;word-spacing:normal;text-transform:none;direction:ltr;block-progression:tb;writing-mode:lr-tb;text-anchor:start;color:#000000;fill:#000000;fill-opacity:1;stroke:none;stroke-width:60;marker:none;visibility:visible;display:inline;overflow:visible;enable-background:accumulate;font-family:Bitstream Vera Sans;-inkscape-font-specification:Bitstream Vera Sans"
         d="m 2251.3191,457.93804 c 10.3413,-39.64893 46.1216,-68.53179 89.2121,-68.53179 49.5938,0 89.4748,38.25853 92.0626,87.15625 l 60.0624,0 c -2.6965,-81.39767 -70.102,-147.15625 -152.125,-147.15625 -65.5205,0 -121.7329,41.96015 -143.0749,100.33382"
         id="path1835" />
    </g>
    <g
       style="display:inline"
       transform="matrix(-1,0,0,-1,4761.3894,959.07587)"
       id="g1837">
      <path
         sodipodi:nodetypes="cccccccccc"
         id="path1839"
         d="m 2518.2188,403.4375 -10.0938,3.8125 -119.2188,44.84375 -11.1874,4.21875 10.7812,5.15625 89.4688,42.84375 5.1874,2.5 1.8438,-5.4375 29.75,-87.71875 3.4688,-10.21875 z"
         style="font-size:medium;font-style:normal;font-variant:normal;font-weight:normal;font-stretch:normal;text-indent:0;text-align:start;text-decoration:none;line-height:normal;letter-spacing:normal;word-spacing:normal;text-transform:none;direction:ltr;block-progression:tb;writing-mode:lr-tb;text-anchor:start;color:#000000;fill:#000000;fill-opacity:1;fill-rule:evenodd;stroke:none;stroke-width:8.16465378pt;marker:none;visibility:visible;display:inline;overflow:visible;enable-background:accumulate;font-family:Bitstream Vera Sans;-inkscape-font-specification:Bitstream Vera Sans" />
      <path
         id="path1841"
         d="m 2251.3191,457.93804 c 10.3413,-39.64893 46.1216,-68.53179 89.2121,-68.53179 49.5938,0 89.4748,38.25853 92.0626,87.15625 l 60.0624,0 c -2.6965,-81.39767 -70.102,-147.15625 -152.125,-147.15625 -65.5205,0 -121.7329,41.96015 -143.0749,100.33382"
         style="font-size:medium;font-style:normal;font-variant:normal;font-weight:normal;font-stretch:normal;text-indent:0;text-align:start;text-decoration:none;line-height:normal;letter-spacing:normal;word-spacing:normal;text-transform:none;direction:ltr;block-progression:tb;writing-mode:lr-tb;text-anchor:start;color:#000000;fill:#000000;fill-opacity:1;stroke:none;stroke-width:60;marker:none;visibility:visible;display:inline;overflow:visible;enable-background:accumulate;font-family:Bitstream Vera Sans;-inkscape-font-specification:Bitstream Vera Sans"
         sodipodi:nodetypes="cscccs" />
    </g>
  </g>
</svg>
